<?xml version="1.0" standalone="no"?>
<!DOCTYPE svg PUBLIC "-//W3C//DTD SVG 20010904//EN"
 "http://www.w3.org/TR/2001/REC-SVG-20010904/DTD/svg10.dtd">
<svg version="1.0" xmlns="http://www.w3.org/2000/svg"
 width="606.000000pt" height="450.000000pt" viewBox="0 0 606.000000 450.000000"
 preserveAspectRatio="xMidYMid meet">

<g transform="translate(0.000000,450.000000) scale(0.100000,-0.100000)"
fill="#000000" stroke="none">
<path d="M4395 4494 c-371 -36 -575 -100 -803 -251 -194 -128 -383 -378 -456
-600 -10 -29 -21 -55 -25 -57 -4 -3 -30 25 -57 62 -256 348 -527 540 -847 597
-118 21 -346 16 -467 -10 -314 -68 -663 -258 -851 -463 -321 -351 -397 -828
-198 -1231 124 -248 336 -432 603 -522 l70 -23 -35 -9 c-52 -14 -215 -1 -294
24 -151 46 -273 126 -470 307 -67 62 -83 72 -105 67 -102 -25 -274 -204 -361
-376 -228 -454 -37 -935 465 -1170 145 -68 217 -83 401 -83 172 -1 237 11 360
61 119 49 202 111 368 272 l107 105 -18 -55 c-44 -127 -135 -264 -250 -377
l-75 -73 61 -122 c75 -151 98 -227 115 -387 8 -69 19 -136 26 -148 15 -27 24
-25 131 28 392 196 866 341 1290 395 463 58 870 44 1359 -49 227 -44 231 -44
231 -38 0 3 -18 36 -40 74 -99 171 -119 241 -129 451 -5 93 -11 170 -12 172
-9 9 -296 68 -393 81 -129 17 -503 19 -711 4 -328 -24 -664 -70 -794 -110 -34
-10 -61 -16 -61 -14 0 8 108 58 214 99 196 75 313 105 787 205 184 38 344 72
357 75 21 5 8 21 -122 158 -79 84 -161 172 -181 197 -72 87 -214 310 -197 310
4 0 72 -67 152 -149 240 -247 463 -392 685 -445 175 -43 227 -50 360 -49 145
1 238 20 420 88 358 133 624 334 807 610 72 108 99 161 144 277 250 646 23
1417 -541 1841 -172 129 -349 203 -560 232 -102 14 -388 26 -460 19z"/>
</g>
</svg>
